<svg width="1227" height="361" viewBox="0 0 1227 361" fill="none" xmlns="http://www.w3.org/2000/svg">
<path d="M626.9 291.4H590.1L526.7 204.1L463.3 291.4H426.5L508.3 178.8L432.9 74.9999H469.7L526.7 153.4L583.7 74.9999H620.5L545.1 178.8L626.9 291.4ZM818.1 229.9C818.1 248.9 811.8 264.1 799.4 275C787 285.9 768.9 291.4 745.7 291.4H644.2V195H596L616.1 167.4H644.3V74.9999H741.5C763.3 74.9999 780.2 80.1999 791.9 90.4999C803.5 100.8 809.4 114.6 809.4 131.3C809.4 148 800 167.9 781.4 178.2C793.4 182.8 802.6 189.7 808.8 198.5C815.1 207.5 818.2 218 818.2 229.7L818.1 229.9ZM677.2 167.4H739.2C751.7 167.4 761.2 164.6 767.4 159.1C773.6 153.6 776.8 145.2 776.8 134.1C776.8 123 773.5 117 767.1 111.6C760.6 106.2 751.3 103.5 739.3 103.5H677.3V167.4H677.2ZM784.7 229.2C784.7 217.8 781.3 209.2 774.5 203.5C767.7 197.8 757.4 194.9 743.8 194.9H677.2V262.7H743.8C757 262.7 767.2 259.8 774.2 254C781.2 248.2 784.7 239.9 784.7 229.1V229.2ZM1040.3 183.2C1040.3 199.9 1037.9 215.3 1033.1 228.8C1028.3 242.4 1021 254.5 1011.4 264.9C1001.7 275.3 990.4 283.2 977.7 288.4C965 293.6 950.6 296.2 934.9 296.2C919.2 296.2 904.5 293.6 891.8 288.4C879.1 283.2 867.8 275.3 858.4 264.9C848.7 254.6 841.4 242.5 836.5 229C831.7 215.4 829.2 200 829.2 183.2C829.2 166.4 831.7 151.1 836.5 137.5C841.3 123.9 848.7 111.7 858.4 101.2C867.9 90.9 879.1 83.0999 891.8 77.8999C904.5 72.7999 919 70.2 934.9 70.2C950.8 70.2 965 72.7999 977.7 77.8999C990.4 82.9999 1001.8 90.9 1011.4 101.2C1021 111.7 1028.3 123.9 1033.1 137.5C1037.9 151.1 1040.3 166.5 1040.3 183.2ZM863.4 183.2C863.4 208.7 870 229.1 883 243.9C895.8 258.9 913.3 266.5 934.9 266.5C956.5 266.5 974 258.9 986.8 243.9C999.6 229.3 1006.1 208.9 1006.1 183.2C1006.1 157.5 999.6 137 986.8 122.2C973.8 107.4 956.3 99.8999 934.9 99.8999C913.5 99.8999 896 107.4 883 122.2C870 137.4 863.4 157.9 863.4 183.2ZM1144.7 178.8L1220.1 74.9999H1183.3L1126.3 153.4L1069.3 74.9999H1032.5L1107.9 178.8L1026.1 291.4H1062.9L1126.3 204.1L1189.7 291.4H1226.5L1144.7 178.8Z" fill="white"/>
<path d="M180.5 144.9C180.7 144.9 181 145.1 181.1 145.2C234.9 186.1 327.1 287.4 299 316C267.3 343.7 225.9 360.5 180.5 360.5C135.1 360.5 93.7 343.7 62 316C33.9 287.4 126.1 186.1 179.9 145.2C180 145.1 180.3 144.9 180.5 144.9ZM274.2 26.8C246.6 10.4 216.8 0.5 180.4 0.5C144 0.5 114.2 10.5 86.6 26.8C86.3 27 86.1 27.4 86.3 27.7C86.4 28 86.8 28.1 87.2 28C122.1 20.5 175 50.6 180 53.6C180.1 53.6 180.2 53.7 180.4 53.7C180.6 53.7 180.7 53.7 180.8 53.6C185.8 50.6 238.8 20.5 273.6 28C274 28 274.3 28 274.5 27.7C274.7 27.4 274.5 27 274.2 26.8ZM54.5 52.1C54.2 52.3 53.9 52.5 53.7 52.7C20.9 85.3 0.5 130.5 0.5 180.4C0.5 230.3 14.2 259.2 37.3 289.5C37.5 289.8 37.9 290 38.3 289.8C38.6 289.6 38.6 289.2 38.5 288.9C24.8 246.5 94.9 143.6 131.2 100.5C131.3 100.4 131.4 100.2 131.4 100C131.4 99.8 131.3 99.6 131.1 99.4C76.2 44.8 57.6 50.6 54.5 52.1ZM229.9 99.4C229.7 99.5 229.6 99.7 229.6 100C229.6 100.3 229.7 100.4 229.8 100.5C266 143.6 336.2 246.5 322.5 288.9C322.4 289.2 322.4 289.6 322.7 289.8C323 290 323.4 289.8 323.7 289.5C346.8 259.2 360.5 221.5 360.5 180.4C360.5 139.3 340.1 85.3 307.3 52.7C307.1 52.5 306.8 52.2 306.5 52.1C303.5 50.5 284.8 44.7 229.9 99.4Z" fill="white"/>
</svg>
